<svg id="visual" viewBox="0 0 960 540" width="960" height="540" xmlns="http://www.w3.org/2000/svg" xmlns:xlink="http://www.w3.org/1999/xlink" version="1.1"><path d="M0 427L22.8 433.7C45.7 440.3 91.3 453.7 137 457.7C182.7 461.7 228.3 456.3 274 443.3C319.7 430.3 365.3 409.7 411.2 411.2C457 412.7 503 436.3 548.8 449.2C594.7 462 640.3 464 686 461.3C731.7 458.7 777.3 451.3 823 443C868.7 434.7 914.3 425.3 937.2 420.7L960 416L960 541L937.2 541C914.3 541 868.7 541 823 541C777.3 541 731.7 541 686 541C640.3 541 594.7 541 548.8 541C503 541 457 541 411.2 541C365.3 541 319.7 541 274 541C228.3 541 182.7 541 137 541C91.3 541 45.7 541 22.8 541L0 541Z" fill="#0066FF" stroke-linecap="round" stroke-linejoin="miter"></path></svg>